<?xml version="1.0" standalone="no"?>
<!DOCTYPE svg PUBLIC "-//W3C//DTD SVG 20010904//EN"
 "http://www.w3.org/TR/2001/REC-SVG-20010904/DTD/svg10.dtd">
<svg version="1.0" xmlns="http://www.w3.org/2000/svg"
 width="256.000000pt" height="256.000000pt" viewBox="0 0 256.000000 256.000000"
 preserveAspectRatio="xMidYMid meet">
<metadata>
Created by potrace 1.11, written by Peter Selinger 2001-2013
</metadata>
<g transform="translate(0.000000,256.000000) scale(0.100000,-0.100000)"
fill="#000000" stroke="none">
<path d="M615 2346 c-40 -9 -135 -92 -135 -118 -1 -7 -47 -143 -103 -302
l-102 -289 -46 -13 c-100 -29 -193 -120 -219 -212 -13 -49 -13 -605 1 -655 5
-20 28 -56 51 -80 l40 -42 -1 -147 c-2 -162 7 -202 57 -245 40 -35 58 -37 263
-37 l187 0 39 27 c59 41 66 63 69 217 1 74 3 142 3 150 1 13 70 15 561 15 369
0 560 -3 561 -10 0 -5 1 -73 3 -150 3 -159 10 -181 69 -222 l39 -27 197 -1
c226 0 249 7 288 83 19 38 21 59 22 195 l1 153 39 42 c23 24 45 60 51 83 7 26
10 147 8 347 -3 296 -4 308 -26 349 -33 64 -75 106 -134 138 -29 15 -54 29
-55 30 -3 2 -173 492 -185 535 -15 51 -53 123 -77 142 -65 54 -31 52 -757 53
-371 0 -688 -4 -709 -9z m1385 -114 c18 -14 37 -52 68 -143 111 -316 152 -436
152 -442 0 -4 -414 -7 -919 -7 l-920 0 19 48 c10 26 56 150 102 277 45 126 92
240 103 253 11 13 35 27 53 30 18 4 322 6 675 5 611 -2 642 -3 667 -21z m346
-727 c30 -19 60 -49 79 -79 l30 -49 1 -288 c1 -317 -2 -337 -58 -360 -44 -18
-2192 -18 -2236 0 -55 23 -57 37 -57 355 l0 291 28 48 c31 52 88 96 139 106
18 4 481 6 1029 6 l996 0 49 -30z m-1736 -897 c4 -4 5 -66 5 -138 -1 -102 -5
-134 -17 -146 -22 -22 -355 -21 -377 1 -12 11 -15 44 -16 147 -1 73 2 135 6
138 11 8 393 6 399 -2z m1740 3 c3 -1 5 -61 5 -135 0 -96 -4 -138 -14 -150
-20 -23 -362 -24 -381 -1 -9 11 -14 57 -15 143 -1 70 0 132 2 137 2 8 367 13
403 6z"/>
<path d="M330 1314 c-173 -75 -160 -326 20 -383 202 -63 354 201 198 346 -54
51 -149 67 -218 37z m144 -110 c29 -22 43 -75 30 -113 -5 -14 -24 -35 -42 -48
-86 -57 -189 44 -138 136 28 50 99 62 150 25z"/>
<path d="M729 1314 c-9 -11 -13 -60 -14 -172 -1 -155 5 -199 28 -214 16 -10
1058 -10 1074 0 23 15 29 59 27 214 -1 110 -5 162 -14 173 -11 13 -82 15 -550
15 -475 0 -539 -2 -551 -16z m1011 -187 l0 -102 -460 0 -460 0 0 102 0 103
460 0 460 0 0 -103z"/>
<path d="M2065 1311 c-43 -19 -90 -68 -107 -110 -34 -86 6 -199 86 -246 110
-64 232 -28 292 87 19 36 22 117 6 159 -28 73 -111 129 -192 129 -25 0 -63 -9
-85 -19z m138 -96 c10 -4 24 -20 32 -36 23 -44 19 -85 -12 -119 -23 -26 -36
-31 -72 -32 -38 0 -49 4 -73 31 -34 39 -37 87 -7 125 34 43 77 53 132 31z"/>
</g>
</svg>
